<?xml version="1.0" encoding="UTF-8"?>
<svg id="Layer_1" xmlns="http://www.w3.org/2000/svg" version="1.1" viewBox="0 0 757.7 390.5">
  <!-- Generator: Adobe Illustrator 29.0.0, SVG Export Plug-In . SVG Version: 2.1.0 Build 186)  -->
  <path d="M198.8,222.1c5.8,6.4,18.5,4.5,25.1,0,4.3-2.9,7.7-8,11.9-10.9s1.8,3.6,1.8,5.3c0,3.3,2.9,7.9,6,9.2,6.9-13.4,16.1-27.2,29.3-35.1,7.6-4.5,12.9-4.1,20.6,0,23.1,12.5,15.2,38.8-6.9,47.4s-49.9,11-53.4-13.1c-.6-.2-.7.2-1,.4-2.4,1.6-5.9,6.8-8.6,9-7.3,5.8-21.7,7.9-28.2,0-3.3-4-3.4-8-5.1-12.5-5.1,6.7-10.3,13.6-19,15.5-10,2.2-17.3-.9-22-9.9s-.9-2.9-1.5-4,0-.7-.9-.5c-.6,7.7-5.1,13.9-10.2,19.4-9.4,10.3-28.7,25.9-43,26.9s-24.7-8.3-27.9-21.2-1.4-23.9,4.3-32.6c.4,0,.8.3.9.6.4,1.1-1.8,10.2-1.9,12.5-.8,12.3,3.5,22.3,15.9,26.1,17.4,5.4,40.4-13.5,51.5-25.5,1.3-1.4,6.9-7.8,7.4-9s.3-5.3.2-6.9c-.7-22.7-3.3-46.7-5.1-69.4s-1.3-7.4-1.2-9.8,4.1-10.1,4.6-11.1.6-.9,1.1-1.3c4.6,19.6,4.3,39.9,5.7,59.8s1.4,30.2,5.8,37,19.6,7.1,26.7,1.5c2.5-2,10-11.7,12-11.6l.9.7c-.3,4.9.8,9.3,4.2,12.9ZM248.1,228.1c16,3.9,37.1.5,50.4-9.5,3.3-2.5,4.3-2.2,1.8-5.9-3.6-5.4-11.8-11.1-18.3-11.9-11.6-1.6-24.3,11.5-30.1,20.3s-4.2,6.5-3.8,7Z"/>
  <path d="M665.5,157.9c.4-4.4,1.8-9.1,4.2-12.9s7.1-8.2,5.9-9.9-6,.3-7.3.6c-7.2,1.5-15.2,4.7-22.1,7.4-23.8,9.2-47.1,21-69,34.1l15.5,10.6c.7,1.6-4.5,1.2-5.3,1.2,9.5,9.1,21.1,15.6,31.4,23.8,7.3,5.8,15.9,13.2,16.9,23.2,1.9,19.3-5.4,26.2-22.6,32.2s-41.6,2.9-44.1-24.4c-.9-10.5-.9-21.2-1.6-31.8-1.7-25.7-2.9-52.2-8.1-77.4,1.4-2.1,3.6-10.8,5-12.1s.7-.4.8,0c3.6,15.9,5.1,32.2,6.3,48.5l2.7-4.1c12.2-9.6,27.4-16.9,41.5-23.7,14.4-6.9,31-14.4,46.2-19s16.6-5.3,19.6-.6c4.5,7.1-5.5,19.2-9.3,25s-3.1,6.1-4.8,8.2-.9,1.3-1.7,1.2ZM572.8,189.3c.5,11.7,1.2,23.5,2,35.1.5,7.9.1,16.4,3.2,23.9,7.1,17.3,36.8,8.4,48.7,1,1.2-.7,5.6-3.6,5.2-5-.8-3.4-6.3-9.9-8.9-12.4-15.6-15-37.8-24.1-50.3-42.6Z"/>
  <path d="M516.7,186.5c-1.2,0-1.3-1.4-2-2.2-8.1-9.3-30.2,4.6-31,14.9-.3,4,2.4,13.7,4.4,17.2s2.4,1.2,5,.3c7.6-2.7,17.3-4.5,23.1,2.6,5.3,6.6,3.3,18.4-1.4,24.9-7.8,10.7-25.2-1.9-28.2-11.5-10.8,4.7-27.6,16.2-33.7-.7-.5-1.5-1.2-6.7-2.3-7.2l-7.8,9.4c-8.8,8.5-28.7,13.4-38.7,4.9-5.1-4.4-10.4-17.5-15.5-19.4s-4.8,0-7.2,1.8c-9.9,6.9-12.8,23.7-18.8,33.8-4.6,7.8-11.6,12.2-18.7,4.1-8.4-9.5-10.1-26.5-8.8-38.6s1.7-11.6,3.3-12.4c1-.1.6,2.7.6,3.3-.6,11.5-3.2,28.5,5.3,37.9,11.4,12.6,20.4-13.9,23.8-20.9s7-14.4,12.7-19.1c15.1-12.6,18.4,13.9,30.2,18.9,12.7,5.4,27.3-1,36.2-10.3,2.3-2.4,4.3-6.9,8-6.7-.3,4.7.7,9.6,3.9,13.1,5.7,6.4,16,.8,22.3-1.8-3.1-11.2-4.3-22.6.4-33.6,4.6-10.9,15.3-23.4,28.4-21.6,11,1.5,8.2,10.9,6.6,18.7ZM501.3,228.2c-.6,0-4.3.8-4.2,1.3,2.9,2.3,6.1,4.6,10,4.9s8.4.4,4.9-3.7-7.5-2.8-10.7-2.4Z"/>
  <path d="M531.9,174.2c.6-.1,1,0,1.5.3,2.4,1,15.7,9.2,17.4,10.9s1.2,1.3,1.2,2.2l-5.1.6c4,3.1,8.1,5.9,12.6,8.3,17,9.1,38,11.3,29.8,36.5-2.4,7.3-6.6,9.3-12.6,13.3-7.4,4.9-15.5,9.7-23.3,14s-27.7,17.7-36.8,4.1c-5.3-7.9-4.7-19.2-1.9-29.2s3.8-1.3,3.3,1c-2.4,10.5-1.2,22.3,13,20.9,6.2-.6,19.7-8.7,25.6-12.1,3.5-2,29.3-17.7,29.5-19.5-1.6-2.8-3.8-4.8-6.5-6.4-5.6-3.5-13-5.8-19-8.9-9.1-4.8-16.9-10.5-23.8-18.3-1.7-1.9-1.8-3.9-4.9-3.1v-14.5Z"/>
  <path d="M649.8,151.2c2.3,7,5.1,13.8,7.2,20.9.6,2.1,1.8,5.5,1.9,7.6s.3,1.7-.6,1.4l-4.9-5.5,5.5,69.6c.3,7.4,0,18.7-3.4,25.3-1.2,2.4-1.6.8-1.8-1-1.8-20.1-3-40.3-4.7-60.4s-1.2-25.6-2.8-37.7c-.3-2.3-2.3-7.3-2.3-8.2s3.9-9.8,4.5-10.8.5-1.3,1.4-1.2Z"/>
  <path d="M477.4,122.2c-.8,2.1-1.8,7.3-3.6,8.3l-90.3,33.4-5.4,2.6c.8-2.5,1.8-7.8,4-9.1l95.3-35.2Z"/>
  <path d="M109.5,178.3c2.1.3,7.3,5.5,7.4,7.3s-.8,4.2-1.1,4.4c-3.6,0-7.7-.9-10.8,1.3s-1.9,2.1-1.7,4.1c.9,12.3,8,29,3.6,41.4s.2,1.1-.9.9c0-5-.2-10.1-.8-15.1-1-7.5-3.4-14.8-4.5-22.1s-1.2-9.8,2.6-13.2c.2-.3-.8.1-.8-.8-.1-1.6,1.2-5.6,2.2-6.9s1.3-.8,1.6-1.2c.9-1.5-3.5-13.1-5.7-14.5l-.4,1c-2.4.4-6.1-1.5-5.9-4.3s1.9-4.7,2.8-5.1c2.3-1,7,3.8,7.9,5.8l3.9,9.7c.8-3.6,1.8-18.1,6.2-18.8s2.7,1.1,3.5,1.9c2.6,2.6,1.6,3.5.2,6.5-.8.6-2.7-2.1-4.1-2-1.1.2-1.6,1.3-2,2.2-1.8,5.2-.9,12.3-2.9,17.6ZM109.1,185c-1.7-2.4-4.7-.8-5.5,1.6l5.5-1.6Z"/>
  <path d="M422.1,251.7c.8-.6,10.6,5.9,12.3,6.6.8-.2,4.2-7.8,5.1-9s.6-.8,1.2-.8c.9,0,8.4,4.5,9.6,5.3s1.6.7,1.6,1.5l-5.5,11.8c-.4.3-.7,0-1.1-.1-1.9-.7-10.3-6.8-11.3-6.7-2,2.3-3.3,6.7-5.1,9s-.6.8-1.2.8-9.1-4.8-10.2-5.6-.9-.6-1-.9l5.4-11.9Z"/>
  <path d="M373.7,186.5l-5.4,9.8c-1.6.3-9.1-5.6-11.5-5.9-.4-.6,4.7-11.2,5.7-12.5l12.3,6.6,5.7-10.1,11.6,6.8-6,12.3-12.4-7Z"/>
  <path d="M162,255c1-.7,10.6,6,12.3,6.6.8-.2,4.2-7.8,5.1-9s.6-.8,1.2-.8c.9,0,8.4,4.5,9.6,5.3s1.6.7,1.6,1.5l-5.7,12-12.2-7c-.6,0-4.2,7.9-5.1,9s-.6.8-1.2.8-9.1-4.8-10.2-5.6-.9-.6-1-.9l5.4-11.9Z"/>
  <path d="M535,207.4c1.3,1,9.7,7.8,9.9,8.5s0,.6-.2.9l-7.2,8.8,8.9,8.4c.2.9-7.2,9-8.4,10.3-.6.1-9.8-7.8-9.9-8.5s0-.6.1-.9c.6-1.5,7.4-8.1,7.2-8.8l-9-8.4,8.5-10.3Z"/>
  <path d="M346.6,123.3c-.9,1.9-2.1,7.1-3.7,8.1l-56,19.6c-.4-.4,2.8-8.4,4.2-8.9l55.5-18.8Z"/>
  <path d="M504.7,254c-.6,1.3-1.4,4.9-2.6,5.6l-38.6,13.5c-.3-.2,1.9-5.8,2.9-6.1l38.3-12.9Z"/>
  <path d="M627.8,118.6c.4.4-2,7.8-3.2,8.3-15.1,6.3-31.5,11-46.3,17.7-.9.4-2,1.9-2.7.9,1.7-2.6,1.5-7,4.4-8.6l47.9-18.3Z"/>
  <path d="M187.6,178.3c-6-1-11.7-.7-17.7,0-.2-.6.2-.9.4-1.4.5-1.1,5.3-9,5.9-9.4,2.6-1.5,18.6-.4,20.8,1.9s.5.6.3,1.1c-3,4.4-6.5,13.3-11.4,15.8s-11.3,2.1-14.3,2.2-3.7.2-3.7-.6l19.6-9.6Z"/>
  <path d="M77.7,167.6c-.5,9.6-5.9,18.4-7.7,27.5s-1,15.8,7.4,14.5,3-3.1,4.3-5.1.5-.5.8,0c.7,1.3-1.7,9.8-2.8,11.4-3.6,5.4-10.8,3.7-13.7-1.5-5.6-10.2,3.4-27.3,7.2-37.2,1.2-3,2-6.2,3.2-9.3l1.2-.2Z"/>
  <path d="M210.2,271.3c1.4-1.6,4.2-1.4,6.1-1.9,5.1-1.4,10.6-3.5,14.9-6.7s4.7-4.9,6.9-5.3,4.3,2.5,7.1,2.6c1.5-3.9,6.1-8.8,10.4-9,6.1-.3,6.5,6.3,3.7,10.4-3.3,4.7-9.8,6.1-15,4.1s-4.4-4.3-9.2-1.3-7.3,6-12.2,7.4c-3.5,1-2.7-.3-4.5-.6s-1.8.4-2.7.4c-1.8,0-3.6,0-5.3,0ZM257.3,257.9c0-2-2.9-1.7-4.4-1.5s-4.7,2.3-5.8,4c3.4,1.9,7.3-.8,10.2-2.6Z"/>
  <path d="M426.3,192.8l-.8.2c-3.6,8.2-12.3,6.5-13.3-2.5-.3-2.5.4-4.6.3-6.6s-.7-1.9-.8-2.8,1.9-4.2,2.9-4.9.3-.6.8,0c2.5,2.9-3.4,12.9,2.5,15.6s6.6-1.4,7.1-4.1-.1-3.1-.4-4.5c-.7-3.5-2.3-4.5,0-8s0-.7.9-.5c2.5,4.8,0,17.6,9.1,15.1,2.7-.8-1.4-6.3-1.9-8-.9-2.8-.1-5.7,1.7-7.9l4.1,11.6c1.1,6.8-7.4,15.7-12.1,7.2Z"/>
  <g>
    <path d="M316.8,158.1c1.4.9,9.7,7.7,9.9,8.5s0,.6-.1.9c-.6,1.5-7.4,8-7.2,8.8l8.9,8.4c.2.9-7.2,9.1-8.4,10.3l-9.9-8.5c-.4-1.3,7.6-8.9,7.4-9.7l-9-8.3,8.5-10.3Z"/>
    <path d="M272.6,123c1.2,1,4.7,27.1,5.1,30.7,2.8,26.1,2.9,52.4,5.1,78.5s6.6,29.7,28.6,26.5c2.8-.4,8.7-2.4,10.7-4s0-7-.8-9.2-3.8-7.1-4-9.3,1-8.3,1.5-10.6,0-1.3.8-1.8c7.8,10,10.4,24.7,5.7,36.6-3.1,7.9-7,9.8-14.9,11-38.6,5.7-32.9-31.1-34.6-56.9s-2.6-44.6-5.7-65.8-2.8-11-2.8-13.9,4.7-12.3,5.4-11.8Z"/>
    <path d="M246.2,124.7c2,1.8,1.4,6.2-.3,8.2l-3.6-3.5c-4.4-1.6-10.5,4.2-4.1,7.6s12.2-2,17.3-4.8v5c-.1,0-21.8,13.3-21.8,13.3,0-2.9,1.5-5.1,3-7.3-3.7-2.6-5.9-4.9-4-9.6s8.6-13.2,13.5-8.8Z"/>
  </g>
  <path d="M639.2,175.5c-.2,1.9.6,4.4-1,5.9-4,2.4-8,4.8-12,7.3s-8,5.8-8.7,5.3c1-2.7.8-5.4,3.1-7.4-2.9-1.3-5.3-4.3-4.6-7.6s5.1-8.7,6.8-10.1c7-5.7,11.2,2.5,6.7,8.2-2-3.8-6.5-5.5-9.4-1.6s2.9,5.2,5.2,5.5c5.5.7,9.2-3.5,13.9-5.5Z"/>
  <path d="M545.7,141.4c-2,0-2.7-2.9-5.1-1.8-2.7,1.3-2,16.2-4.5,19.8s-1.4,1.5-2,1.6c-1.3-5.8-3.1-11.3-6.1-16.5-1.8,2.9-7-.7-7-2.9s2.3-5.5,3-5.7c7.4,1.2,9.7,9.5,11.7,15.7.6-3.2.8-6.6,1.6-9.8,1.2-5.2,3.4-13.3,9-5.8s-.2,2.9-.6,5.5Z"/>
  <path d="M185,131.6l-3.8-2.3c-1.8-.3-2.4,2.5-2.7,3.8-.9,4-.9,13.4-2.9,16.4s-1.2,1.3-1.8,1.4c-.9.1-.5-.3-.7-.9-1.7-5.1-2.3-10.9-6-15.2-1.9,2.6-6.5-.4-6.5-3.3s1.8-4.8,2.4-5.1c1.8-1.1,5.5,2.2,6.7,3.6,2.8,3.4,4.1,7.8,5.3,12,.8-4,1.1-8.1,2.1-12s2.7-9.4,7.1-5.5c3.2,2.8,2,3.8.8,7.3Z"/>
  <path d="M371,150.4c-1-5.6-2.5-11.6-6.1-16.1h-.5c-.7,2.2-5.4-.8-5.9-2.2s1.5-6.4,2.9-6.6c3.2-.5,7.7,5.3,8.7,8l2.9,7.9c.4-3.6,1.8-17.1,5.1-18.6s6.5,2.9,6.1,4.5-1.7,3.9-2,3.9c-4.7-5.1-5.6-1.3-6.4,3.5s-.5,5.9-1,8.8-.7,6.4-3.8,7Z"/>
  <path d="M496.6,136.7c7.6-1,7.8,6.3,6.5,11.8-2.2,9-13,8.3-12.8-1.4,0-3.9,2.5-7.6,3.8-11.1s1.4-6.1,2.1-5.6c.6,2.1,1.2,4.1.4,6.3ZM494.8,147.2c1.6,1.5,7.1,1.2,7-1.2-.2-2.7-5.1-3.7-7.2-3.3-1.3.4-.7,3.6.3,4.5Z"/>
  <path d="M207.5,133.7c7.6-1,7.8,6.3,6.5,11.8-2.2,9-13,8.3-12.8-1.4,0-3.9,2.5-7.6,3.8-11.1s1.4-6.1,2.1-5.6c.6,2.1,1.2,4.1.4,6.3ZM205.7,144.2c1.6,1.5,7.1,1.2,7-1.2-.2-2.7-5.1-3.7-7.2-3.3-1.3.4-.7,3.6.3,4.5Z"/>
  <path d="M468.4,164.9c1.5,3.9-.4,12.8-5.3,13.3s-5.1-3.6-5.5-5.9c-1.6-8.7,4.4-16.1,5.7-24.3,1-.1,1.2.5,1.2,1.4,0,4.6-7,18.2-2.1,21.4s3.1,0,4-1.4.8-3.3,2-4.4Z"/>
  <path d="M389.4,260.7c1.3,3.4-.3,11-4.6,11.5s-4.4-3.1-4.7-5c-1.4-7.5,3.8-13.9,4.9-20.9.8,0,1,.5,1,1.2,0,3.9-6,15.7-1.8,18.4,1.4.9,2.7,0,3.5-1.2s.7-2.8,1.7-3.8Z"/>
  <path d="M346.6,147c.9,4.7-6.8,19.4-1.8,22.4,3.6,2.1,4.7-3.1,5.3-5.3s-.2-.7.8-.6c.4,2.9.6,5.3-.3,8.2-1.5,4.8-6.4,7.7-9.6,2.2-4.5-7.9,3-18.5,4.6-26.4l.9-.5Z"/>
  <path d="M221.7,172.9c.9,4.7-6.8,19.4-1.8,22.4s4.7-3.1,5.3-5.3-.2-.7.8-.6c.4,2.9.6,5.3-.3,8.2-1.5,4.8-6.4,7.7-9.6,2.2-4.5-7.9,3-18.5,4.6-26.4l.9-.5Z"/>
  <path d="M249.9,191.8c0-1,.2-2.1.3-3.1.4-3.2.4-6.3-.5-9.4-1.1-3.7-3.1-6.9-5.7-9.8-1.5-1.7-3.3-3.2-4.8-4.9-.3-.3-.4-1.2-.2-1.7.6-1.2,1.3-2.4,2-3.6.1-.2.8-.3,1.1,0,5.1,3.7,8.4,8.5,10.1,14.6.9,3.3,1,6.6.9,10-.1,2.5-.7,5-1.9,7.2-.2.4-.6.7-.9,1.1-.1,0-.3-.2-.4-.2Z"/>
</svg>