<svg width="512" height="512" viewBox="0 0 512 512" fill="none" xmlns="http://www.w3.org/2000/svg" role="img" aria-label="أكاديمية تأصيل">
  <defs>
    <linearGradient id="bg" x1="0" y1="0" x2="0" y2="512" gradientUnits="userSpaceOnUse">
      <stop offset="0" stop-color="#3a9563"/>
      <stop offset="1" stop-color="#1c6b40"/>
    </linearGradient>
    <radialGradient id="glow" cx="0.3" cy="0.22" r="0.9">
      <stop offset="0" stop-color="#ffffff" stop-opacity="0.18"/>
      <stop offset="1" stop-color="#ffffff" stop-opacity="0"/>
    </radialGradient>
  </defs>

  <rect width="512" height="512" rx="116" fill="url(#bg)"/>
  <rect width="512" height="512" rx="116" fill="url(#glow)"/>
  <rect x="6" y="6" width="500" height="500" rx="110" fill="none" stroke="#ffffff" stroke-opacity="0.12" stroke-width="4"/>

  <!-- knowledge spark -->
  <path d="M256 96 C262 128 274 140 306 146 C274 152 262 164 256 196 C250 164 238 152 206 146 C238 140 250 128 256 96 Z" fill="#f4d58d"/>

  <!-- open book -->
  <g>
    <path d="M256 250 C214 232 168 230 132 244 L132 372 C168 358 214 360 256 378 Z" fill="#ffffff"/>
    <path d="M256 250 C298 232 344 230 380 244 L380 372 C344 358 298 360 256 378 Z" fill="#eef6ef"/>
    <path d="M256 250 L256 378" stroke="#1c6b40" stroke-opacity="0.35" stroke-width="6" stroke-linecap="round"/>
    <path d="M156 268 C186 260 220 260 244 272" stroke="#1c6b40" stroke-opacity="0.18" stroke-width="7" stroke-linecap="round" fill="none"/>
    <path d="M268 272 C292 260 326 260 356 268" stroke="#1c6b40" stroke-opacity="0.18" stroke-width="7" stroke-linecap="round" fill="none"/>
  </g>

  <!-- foundation line (تأصيل = rooting) -->
  <rect x="150" y="404" width="212" height="12" rx="6" fill="#f4d58d"/>
  <rect x="196" y="426" width="120" height="10" rx="5" fill="#ffffff" fill-opacity="0.6"/>
</svg>
